<?xml version="1.0" encoding="UTF-8"?>
<!-- Do not edit this file with editors other than diagrams.net -->
<!DOCTYPE svg PUBLIC "-//W3C//DTD SVG 1.1//EN" "http://www.w3.org/Graphics/SVG/1.1/DTD/svg11.dtd">
<svg xmlns="http://www.w3.org/2000/svg" xmlns:xlink="http://www.w3.org/1999/xlink" version="1.1" width="1014px" height="799px" viewBox="-0.5 -0.5 1014 799" content="&lt;mxfile host=&quot;drawio-plugin&quot; scale=&quot;1&quot; border=&quot;0&quot; modified=&quot;2026-08-30T12:31:14.501Z&quot; agent=&quot;Mozilla/5.0 (Macintosh; Intel Mac OS X 10_15_7) AppleWebKit/537.36 (KHTML, like Gecko) Chrome/137.0.0.0 Safari/537.36&quot; version=&quot;22.1.22&quot; etag=&quot;YySBWacHpLeiP22CTgxc&quot; type=&quot;embed&quot;&gt;&lt;diagram name=&quot;Page-1&quot; id=&quot;0xBIWdNlk44Q6qDQA2cH&quot;&gt;7Z1tc+I2EMc/jWfazpTxM+YlkOSazj2k4TJtXyq2ADe2RWVxhPv0XfkBg2VscbEDSZ3LTIK8NpL2r5/WuzinGNPw+QNFq+Un4uFA0VXvWTGuFF3XLF2FH7xlm7WoQyNtWVDfS9vUomHmf8e5Yda69j0cZ21pEyMkYP7qsNElUYRddtCGKCWbQ7M5CbyDhhVaYKFh5qJAbP3T99gybXUstWj/DfuLZf7OmpodeUTu04KSdZS9X8CNfvUQffpJ0Y158qXoU4UP39B0/u/n9MwQ5W+TXSpeIo9s9pqMa8WYUkJY+lv4PMUBn/fDGb05cnQ3JIojJnPCzP7nQft79OWv3/XvdvTbw9/b4OHX7CrfULDOpmoGZ/3px5gP6VpXHFUZga/VaYDiGH5e+WhBUZgNiW3zGWb4GXoxWbIwgAYNfo0ZJU94SgJCoSUiEVhO5n4QlJoQzGkEL10YB4b2yTdMmQ++G2cHQt/z+NtMNkuf4dkKufw9NyBVaEt8g/kQVX55ErFMfZqTv846qWWvb1DoB1zIU7KmPryjrn7Gm+xg3jcPz9E64CMK0CMOJjsZlDqfHiXUw7R0hE/ILHc575vor3zyYbz4ea8p898HTELM6BZMsqN2Lst8Hdp6+npTiNrKbZZ7gjazNpSto8Xu0oVg4JdMMyfoRxf0M16tAvAe80n0EPPZLQkl3vhhgFIxlLwjKCFmiOb+1O2SfGDBeQg7c1fQGhyxXQc/zt++xw3r0OO6KXpcNyo8PurK44bgcUWHkapfNhGmn1GYgMMYJ06nfrRQjBsFfAd0TKeE284YofgTDh8xjXfmtzCdAcAfhHOMLqciJcBzVgEURjg5YgAJ9O9jYnNlQgsBw3mQuG8JzMFRwheGGHpMOsIHsCJ+xJI5tSbwDbM8VQeWYl3xXcCaaMVr+ObmFBQWQceRn4gAo5htcMxKsLo8ONUu92b95nq15eRqmB3J1ayQa0lcgZ/MSQ1DRIW9R1/ZqpyvnI5cZQmu+gmGjiOPM+IWliPz2ZbvKT9fMB/2F/XuddZR/b0Kx5ETTr72WleOLUaxxQ7TRyCtRiCGIxmB7O6hWnf38EgIkjj91ttFFB/grlOIPThA9myyIKVsdU8CIZAp20wpRgx7Y7YzvILXX30eAl0sn/7f8Ystrf4T45dhV1p3BK1fP69wFIsa67H2EqxZhizWjK5cPTqCtSaiSWFvCmhakGQGaqE2DsE1BdE87PohCgSzTIQceBX0Kxl/JgzH5TeuuC3sgfrmgOpIr7sTgdpd9JDnpPfW2XQdM7h6Hyq2y9ShVsVUo+LGwOzqnlITE9wtQrUq3VW2uVvyCW+G33WI/EDCbux5FMcyOP0KpAq+cN8X1pw5lXazFZbA/keAVXLFavBXdOIewwJxtzMXprO2FzcU/7uWM/0EMwqLTcLyfh7O8CLcH1ofzL+XvWcHcmlAjQ7wpFekLXSzgk7dbUVi+SThTr8PvWgfGqoSRRPzVWN77VjZpI0tZrqmlJOzyY7T7HvFblS2m6xjP4I95ut2JbNz9eh8e+hspZBTuYS6g6VYyklCkR6WrcKyMhFS5ekOt0WxEtRmJiS72SvbVZAt0dfndVpFqGfmDPCyFqLyylC7Mcq+woEPDtxOl4gucLO5H7tSSRvZPExNhN+z/+2z35RGxKns7ywLrokVvkSktwyLH0Xr+f8S/juqrLc7+1CZdqzA14T2VBMNRneUeGuXSeA/s5QJwR8in91R322m9ZTEkpZ/rFHykQelLsPRA/jtAbiVKmTlktQ6W5JiHTJbHT1+X4RfTXV+MFnRYfzdaSVSBqezp7VEnHqsplllKk1d/vl3uIikMSPukxSnP5JNYvx1SXG85M8v1Fnz7aRpjm7jscvgPmFn90hIxXbT7w9vbn9opaj6ugG6LhZVb4AFLjii3yDa3SDMkWw22+7M251WVY8E6EIuhSdHmFya4o5iz3eBg1c4RFFxYY+sOXUqYI3pJHnqq8HyYbWStEyeqnuIcWHYVyLfC7F1+UrkqcTurCKli7XH2+gbjBMCqnEAA+m53S63bWluW535/EerkK1yu6KqKMASxzFaNN8mYPDHfuR9NFS+x6joVh8ovxPsdlfF1DtbgmImWxsMfhE0hr0FzgkLXluSBYlQcF20Tv5Zh6vcAlFX2X8Wmjtw71FsHHlj/hQ9v9YqEVI9dssPMF2ODjIMx9APF9dNc2rHkhixxi7zBp/tWv1QHKDkZnu/F+2LQ0x89+JoXxza2dSRnAqzjbZ7BhnEiyvfkSQntHvqX1MHhj4qvg7CCkMd7uvuxLPNrNpfqDbtXaHh3TBfIGsxedzL+oyyzhNMZ9a1pmrOwB4e6FF39IFm76nVrhV31SUM8zUkLabIe0mfU9LqRUjaNg/v+Qxdr9Vv2d7Rht1r1xBztb12z6ld86KCUENM7vbyOKM8LmOztoclslkNZCvZW6PXIJuY0+yle7J0zx8W6qVNtDEIPDzB1uzjWhNOHwl7tn04onQpZ2fV9qOc8dVKV0rXunCl1uQvpnd7+Z+R3Hl+8uwLyhTvs+x6fFedM7RfA+HiUx7qGTTsoXi5s3zjgj535GDZA22o7r60A1E5plorxPqzbcs6gfRWic9O+RPMsqQvf2Y678argV58QOZVQX99H6Joq2Rl3oNW70vTH9N7C0umeQ8wJfcA7bIqDIZYfurx2rVWnLNp5YeAPRoOB45xADizIY9VcYpjjwavEjD0NbOLErHeeib2ZcDra0+XJY8LuScS/qylWU844YQX3g3By+JP/6fmxf+9YFz/Bw==&lt;/diagram&gt;&lt;/mxfile&gt;" style="background-color: light-dark(rgb(255, 255, 255), rgb(18, 18, 18));"><defs><clipPath id="mx-clip-6-111-226-34-0"><rect x="6" y="111" width="226" height="34"/></clipPath><clipPath id="mx-clip-6-153-226-22-0"><rect x="6" y="153" width="226" height="22"/></clipPath><clipPath id="mx-clip-6-251-226-70-0"><rect x="6" y="251" width="226" height="70"/></clipPath><clipPath id="mx-clip-6-401-226-100-0"><rect x="6" y="401" width="226" height="100"/></clipPath><clipPath id="mx-clip-15-583-220-200-0"><rect x="15" y="583" width="220" height="200"/></clipPath><clipPath id="mx-clip-356-111-236-100-0"><rect x="356" y="111" width="236" height="100"/></clipPath><clipPath id="mx-clip-356-401-236-170-0"><rect x="356" y="401" width="236" height="170"/></clipPath><clipPath id="mx-clip-356-675-236-110-0"><rect x="356" y="675" width="236" height="110"/></clipPath><clipPath id="mx-clip-736-111-236-170-0"><rect x="736" y="111" width="236" height="170"/></clipPath><clipPath id="mx-clip-736-361-236-130-0"><rect x="736" y="361" width="236" height="130"/></clipPath><clipPath id="mx-clip-736-561-236-120-0"><rect x="736" y="561" width="236" height="120"/></clipPath></defs><rect fill="light-dark(#ffffff, #121212)" width="100%" height="100%" x="0" y="0"/><g><rect x="252" y="0" width="500" height="40" fill="none" stroke="none" pointer-events="all"/><g transform="translate(-0.5 -0.5)"><switch><foreignObject pointer-events="none" width="100%" height="100%" requiredFeatures="http://www.w3.org/TR/SVG11/feature#Extensibility" style="overflow: visible; text-align: left;"><div xmlns="http://www.w3.org/1999/xhtml" style="display: flex; align-items: unsafe center; justify-content: unsafe center; width: 498px; height: 1px; padding-top: 20px; margin-left: 253px;"><div data-drawio-colors="color: rgb(0, 0, 0); " style="box-sizing: border-box; font-size: 0px; text-align: center;"><div style="display: inline-block; font-size: 18px; font-family: &quot;Courier New&quot;; color: rgb(0, 0, 0); line-height: 1.2; pointer-events: all; font-weight: bold; white-space: normal; overflow-wrap: normal;">SellWise – Class Diagram</div></div></div></foreignObject><text x="502" y="25" fill="rgb(0, 0, 0)" font-family="Courier New" font-size="18px" text-anchor="middle" font-weight="bold">SellWise – Class Diagram</text></switch></g><path d="M 2 106 L 2 80 L 232 80 L 232 106" fill="#dae8fc" stroke="#6c8ebf" stroke-miterlimit="10" pointer-events="all"/><path d="M 2 106 L 2 170 L 232 170 L 232 106" fill="none" stroke="#6c8ebf" stroke-miterlimit="10" pointer-events="none"/><path d="M 2 106 L 232 106" fill="none" stroke="#6c8ebf" stroke-miterlimit="10" pointer-events="none"/><g fill="rgb(0, 0, 0)" font-family="Courier New" font-weight="bold" text-anchor="middle" font-size="12px"><text x="116.5" y="97.5">ApplicationUser</text></g><rect x="2" y="106" width="230" height="34" fill="none" stroke="none" pointer-events="all"/><g fill="rgb(0, 0, 0)" font-family="Courier New" clip-path="url(#mx-clip-6-111-226-34-0)" font-size="11px"><text x="7.5" y="122.5">+ OwnerName : string?</text><text x="7.5" y="135.5">+ StoreMembers : ICollection</text></g><path d="M 2 144 L 232 144" fill="none" stroke="#6c8ebf" stroke-width="4" stroke-miterlimit="10" pointer-events="all"/><rect x="2" y="148" width="230" height="22" fill="none" stroke="none" pointer-events="all"/><g fill="rgb(0, 0, 0)" font-family="Courier New" font-style="italic" clip-path="url(#mx-clip-6-153-226-22-0)" font-size="10px"><text x="7.5" y="163.5">(extends IdentityUser)</text></g><path d="M 2 246 L 2 220 L 232 220 L 232 246" fill="#dae8fc" stroke="#6c8ebf" stroke-miterlimit="10" pointer-events="all"/><path d="M 2 246 L 2 320 L 232 320 L 232 246" fill="none" stroke="#6c8ebf" stroke-miterlimit="10" pointer-events="none"/><path d="M 2 246 L 232 246" fill="none" stroke="#6c8ebf" stroke-miterlimit="10" pointer-events="none"/><g fill="rgb(0, 0, 0)" font-family="Courier New" font-weight="bold" text-anchor="middle" font-size="12px"><text x="116.5" y="237.5">StoreMember</text></g><rect x="2" y="246" width="230" height="70" fill="none" stroke="none" pointer-events="all"/><g fill="rgb(0, 0, 0)" font-family="Courier New" clip-path="url(#mx-clip-6-251-226-70-0)" font-size="11px"><text x="7.5" y="262.5">+ StoreId : Guid</text><text x="7.5" y="275.5">+ UserId : string</text><text x="7.5" y="288.5">+ Role : string</text><text x="7.5" y="301.5">+ CreatedAt : DateTime</text></g><path d="M 2 396 L 2 370 L 232 370 L 232 396" fill="#dae8fc" stroke="#6c8ebf" stroke-miterlimit="10" pointer-events="all"/><path d="M 2 396 L 2 500 L 232 500 L 232 396" fill="none" stroke="#6c8ebf" stroke-miterlimit="10" pointer-events="none"/><path d="M 2 396 L 232 396" fill="none" stroke="#6c8ebf" stroke-miterlimit="10" pointer-events="none"/><g fill="rgb(0, 0, 0)" font-family="Courier New" font-weight="bold" text-anchor="middle" font-size="12px"><text x="116.5" y="387.5">Expense</text></g><rect x="2" y="396" width="230" height="100" fill="none" stroke="none" pointer-events="all"/><g fill="rgb(0, 0, 0)" font-family="Courier New" clip-path="url(#mx-clip-6-401-226-100-0)" font-size="11px"><text x="7.5" y="412.5">+ Id : Guid</text><text x="7.5" y="425.5">+ StoreId : Guid</text><text x="7.5" y="438.5">+ Category : string</text><text x="7.5" y="451.5">+ Amount : decimal</text><text x="7.5" y="464.5">+ ExpenseDate : DateTime</text><text x="7.5" y="477.5">+ Notes : string?</text><text x="7.5" y="490.5">+ CreatedAt : DateTime</text></g><path d="M 2 576 L 2 550 L 235 550 L 235 576" fill="#dae8fc" stroke="#6c8ebf" stroke-miterlimit="10" pointer-events="all"/><path d="M 2 576 L 2 798 L 235 798 L 235 576" fill="none" stroke="#6c8ebf" stroke-miterlimit="10" pointer-events="none"/><path d="M 2 576 L 235 576" fill="none" stroke="#6c8ebf" stroke-miterlimit="10" pointer-events="none"/><g fill="rgb(0, 0, 0)" font-family="Courier New" font-weight="bold" text-anchor="middle" font-size="12px"><text x="118" y="567.5">Customer</text></g><rect x="11" y="578" width="224" height="200" fill="none" stroke="none" pointer-events="all"/><g fill="rgb(0, 0, 0)" font-family="Courier New" clip-path="url(#mx-clip-15-583-220-200-0)" font-size="11px"><text x="16.5" y="594.5">+ Id : Guid</text><text x="16.5" y="607.5">+ StoreId : Guid</text><text x="16.5" y="620.5">+ Name : string</text><text x="16.5" y="633.5">+ Phone : string?</text><text x="16.5" y="646.5">+ Email : string?</text><text x="16.5" y="659.5">+ Address : string?</text><text x="16.5" y="672.5">+ TotalOrders : int</text><text x="16.5" y="685.5">+ TotalSpent : decimal</text><text x="16.5" y="698.5">+ LastOrderDate : DateTime?</text><text x="16.5" y="711.5">+ RecencyScore : int</text><text x="16.5" y="724.5">+ FrequencyScore : int</text><text x="16.5" y="737.5">+ MonetaryScore : int</text><text x="16.5" y="750.5">+ RfmSegment : string</text><text x="16.5" y="763.5">+ CreatedAt : DateTime</text></g><path d="M 352 106 L 352 80 L 592 80 L 592 106" fill="#dae8fc" stroke="#6c8ebf" stroke-miterlimit="10" pointer-events="all"/><path d="M 352 106 L 352 210 L 592 210 L 592 106" fill="none" stroke="#6c8ebf" stroke-miterlimit="10" pointer-events="none"/><path d="M 352 106 L 592 106" fill="none" stroke="#6c8ebf" stroke-miterlimit="10" pointer-events="none"/><g fill="rgb(0, 0, 0)" font-family="Courier New" font-weight="bold" text-anchor="middle" font-size="12px"><text x="471.5" y="97.5">Store</text></g><rect x="352" y="106" width="240" height="100" fill="none" stroke="none" pointer-events="all"/><g fill="rgb(0, 0, 0)" font-family="Courier New" clip-path="url(#mx-clip-356-111-236-100-0)" font-size="11px"><text x="357.5" y="122.5">+ Id : Guid</text><text x="357.5" y="135.5">+ Name : string</text><text x="357.5" y="148.5">+ Currency : string</text><text x="357.5" y="161.5">+ Timezone : string</text><text x="357.5" y="174.5">+ BusinessType : string?</text><text x="357.5" y="187.5">+ CreatedAt : DateTime</text></g><path d="M 352 396 L 352 370 L 592 370 L 592 396" fill="#dae8fc" stroke="#6c8ebf" stroke-miterlimit="10" pointer-events="all"/><path d="M 352 396 L 352 570 L 592 570 L 592 396" fill="none" stroke="#6c8ebf" stroke-miterlimit="10" pointer-events="none"/><path d="M 352 396 L 592 396" fill="none" stroke="#6c8ebf" stroke-miterlimit="10" pointer-events="none"/><g fill="rgb(0, 0, 0)" font-family="Courier New" font-weight="bold" text-anchor="middle" font-size="12px"><text x="471.5" y="387.5">Order</text></g><rect x="352" y="396" width="240" height="170" fill="none" stroke="none" pointer-events="all"/><g fill="rgb(0, 0, 0)" font-family="Courier New" clip-path="url(#mx-clip-356-401-236-170-0)" font-size="11px"><text x="357.5" y="412.5">+ Id : Guid</text><text x="357.5" y="425.5">+ StoreId : Guid</text><text x="357.5" y="438.5">+ CustomerId : Guid?</text><text x="357.5" y="451.5">+ OrderNumber : string</text><text x="357.5" y="464.5">+ Status : string</text><text x="357.5" y="477.5">+ Total : decimal</text><text x="357.5" y="490.5">+ DeliveryCharge : decimal</text><text x="357.5" y="503.5">+ Discount : decimal</text><text x="357.5" y="516.5">+ Notes : string?</text><text x="357.5" y="529.5">+ OrderDate : DateTime</text><text x="357.5" y="542.5">+ CreatedAt : DateTime</text></g><path d="M 352 670 L 352 644 L 592 644 L 592 670" fill="#dae8fc" stroke="#6c8ebf" stroke-miterlimit="10" pointer-events="all"/><path d="M 352 670 L 352 784 L 592 784 L 592 670" fill="none" stroke="#6c8ebf" stroke-miterlimit="10" pointer-events="none"/><path d="M 352 670 L 592 670" fill="none" stroke="#6c8ebf" stroke-miterlimit="10" pointer-events="none"/><g fill="rgb(0, 0, 0)" font-family="Courier New" font-weight="bold" text-anchor="middle" font-size="12px"><text x="471.5" y="661.5">OrderItem</text></g><rect x="352" y="670" width="240" height="110" fill="none" stroke="none" pointer-events="all"/><g fill="rgb(0, 0, 0)" font-family="Courier New" clip-path="url(#mx-clip-356-675-236-110-0)" font-size="11px"><text x="357.5" y="686.5">+ Id : Guid</text><text x="357.5" y="699.5">+ OrderId : Guid</text><text x="357.5" y="712.5">+ ProductId : Guid?</text><text x="357.5" y="725.5">+ ProductName : string</text><text x="357.5" y="738.5">+ UnitPrice : decimal</text><text x="357.5" y="751.5">+ CostPrice : decimal</text><text x="357.5" y="764.5">+ Quantity : int</text><text x="357.5" y="777.5">+ CreatedAt : DateTime</text></g><path d="M 732 106 L 732 80 L 972 80 L 972 106" fill="#dae8fc" stroke="#6c8ebf" stroke-miterlimit="10" pointer-events="all"/><path d="M 732 106 L 732 280 L 972 280 L 972 106" fill="none" stroke="#6c8ebf" stroke-miterlimit="10" pointer-events="none"/><path d="M 732 106 L 972 106" fill="none" stroke="#6c8ebf" stroke-miterlimit="10" pointer-events="none"/><g fill="rgb(0, 0, 0)" font-family="Courier New" font-weight="bold" text-anchor="middle" font-size="12px"><text x="851.5" y="97.5">Product</text></g><rect x="732" y="106" width="240" height="170" fill="none" stroke="none" pointer-events="all"/><g fill="rgb(0, 0, 0)" font-family="Courier New" clip-path="url(#mx-clip-736-111-236-170-0)" font-size="11px"><text x="737.5" y="122.5">+ Id : Guid</text><text x="737.5" y="135.5">+ StoreId : Guid</text><text x="737.5" y="148.5">+ Name : string</text><text x="737.5" y="161.5">+ Sku : string?</text><text x="737.5" y="174.5">+ Category : string?</text><text x="737.5" y="187.5">+ CostPrice : decimal</text><text x="737.5" y="200.5">+ SellingPrice : decimal</text><text x="737.5" y="213.5">+ StockQuantity : int</text><text x="737.5" y="226.5">+ LowStockThreshold : int</text><text x="737.5" y="239.5">+ Unit : string</text><text x="737.5" y="252.5">+ IsActive : bool</text><text x="737.5" y="265.5">+ CreatedAt : DateTime</text></g><path d="M 732 356 L 732 330 L 972 330 L 972 356" fill="#dae8fc" stroke="#6c8ebf" stroke-miterlimit="10" pointer-events="all"/><path d="M 732 356 L 732 490 L 972 490 L 972 356" fill="none" stroke="#6c8ebf" stroke-miterlimit="10" pointer-events="none"/><path d="M 732 356 L 972 356" fill="none" stroke="#6c8ebf" stroke-miterlimit="10" pointer-events="none"/><g fill="rgb(0, 0, 0)" font-family="Courier New" font-weight="bold" text-anchor="middle" font-size="12px"><text x="851.5" y="347.5">Forecast</text></g><rect x="732" y="356" width="240" height="130" fill="none" stroke="none" pointer-events="all"/><g fill="rgb(0, 0, 0)" font-family="Courier New" clip-path="url(#mx-clip-736-361-236-130-0)" font-size="11px"><text x="737.5" y="372.5">+ Id : Guid</text><text x="737.5" y="385.5">+ StoreId : Guid</text><text x="737.5" y="398.5">+ ProductId : Guid</text><text x="737.5" y="411.5">+ TargetDate : DateTime</text><text x="737.5" y="424.5">+ PredictedDemand : double</text><text x="737.5" y="437.5">+ LowerBound : double</text><text x="737.5" y="450.5">+ UpperBound : double</text><text x="737.5" y="463.5">+ ModelUsed : string</text><text x="737.5" y="476.5">+ CreatedAt : DateTime</text></g><path d="M 732 556 L 732 530 L 972 530 L 972 556" fill="#dae8fc" stroke="#6c8ebf" stroke-miterlimit="10" pointer-events="all"/><path d="M 732 556 L 732 680 L 972 680 L 972 556" fill="none" stroke="#6c8ebf" stroke-miterlimit="10" pointer-events="none"/><path d="M 732 556 L 972 556" fill="none" stroke="#6c8ebf" stroke-miterlimit="10" pointer-events="none"/><g fill="rgb(0, 0, 0)" font-family="Courier New" font-weight="bold" text-anchor="middle" font-size="12px"><text x="851.5" y="547.5">InventoryAlert</text></g><rect x="732" y="556" width="240" height="120" fill="none" stroke="none" pointer-events="all"/><g fill="rgb(0, 0, 0)" font-family="Courier New" clip-path="url(#mx-clip-736-561-236-120-0)" font-size="11px"><text x="737.5" y="572.5">+ Id : Guid</text><text x="737.5" y="585.5">+ StoreId : Guid</text><text x="737.5" y="598.5">+ ProductId : Guid</text><text x="737.5" y="611.5">+ Type : string</text><text x="737.5" y="624.5">+ Message : string</text><text x="737.5" y="637.5">+ Severity : string</text><text x="737.5" y="650.5">+ IsRead : bool</text><text x="737.5" y="663.5">+ CreatedAt : DateTime</text></g><path d="M 117 170 L 117 217.76" fill="none" stroke="#6c8ebf" stroke-miterlimit="10" pointer-events="stroke"/><path d="M 113.5 211.88 L 117 218.88 L 120.5 211.88" fill="none" stroke="#6c8ebf" stroke-miterlimit="10" pointer-events="all"/><g transform="translate(-0.5 -0.5)"><switch><foreignObject pointer-events="none" width="100%" height="100%" requiredFeatures="http://www.w3.org/TR/SVG11/feature#Extensibility" style="overflow: visible; text-align: left;"><div xmlns="http://www.w3.org/1999/xhtml" style="display: flex; align-items: unsafe center; justify-content: unsafe center; width: 1px; height: 1px; padding-top: 195px; margin-left: 117px;"><div data-drawio-colors="color: rgb(0, 0, 0); " style="box-sizing: border-box; font-size: 0px; text-align: center;"><div style="display: inline-block; font-size: 10px; font-family: &quot;Courier New&quot;; color: rgb(0, 0, 0); line-height: 1.2; pointer-events: all; white-space: nowrap;">1..*</div></div></div></foreignObject><text x="117" y="198" fill="rgb(0, 0, 0)" font-family="Courier New" font-size="10px" text-anchor="middle">1..*</text></switch></g><path d="M 352 145 L 272.29 145 Q 262.29 145 262.29 155 L 262.29 260.05 Q 262.29 270.05 252.29 270.05 L 234.24 270.05" fill="none" stroke="#6c8ebf" stroke-miterlimit="10" pointer-events="stroke"/><path d="M 240.12 266.55 L 233.12 270.05 L 240.12 273.55" fill="none" stroke="#6c8ebf" stroke-miterlimit="10" pointer-events="all"/><g transform="translate(-0.5 -0.5)"><switch><foreignObject pointer-events="none" width="100%" height="100%" requiredFeatures="http://www.w3.org/TR/SVG11/feature#Extensibility" style="overflow: visible; text-align: left;"><div xmlns="http://www.w3.org/1999/xhtml" style="display: flex; align-items: unsafe center; justify-content: unsafe center; width: 1px; height: 1px; padding-top: 178px; margin-left: 262px;"><div data-drawio-colors="color: rgb(0, 0, 0); " style="box-sizing: border-box; font-size: 0px; text-align: center;"><div style="display: inline-block; font-size: 10px; font-family: &quot;Courier New&quot;; color: rgb(0, 0, 0); line-height: 1.2; pointer-events: all; white-space: nowrap;">1..*</div></div></div></foreignObject><text x="262" y="181" fill="rgb(0, 0, 0)" font-family="Courier New" font-size="10px" text-anchor="middle">1..*</text></switch></g><path d="M 592 120.14 L 660.67 120.14 Q 670.67 120.14 670.67 130.14 L 670.67 170.05 Q 670.67 180.05 680.67 180.05 L 729.76 180.05" fill="none" stroke="#6c8ebf" stroke-miterlimit="10" pointer-events="stroke"/><path d="M 723.88 183.55 L 730.88 180.05 L 723.88 176.55" fill="none" stroke="#6c8ebf" stroke-miterlimit="10" pointer-events="all"/><g transform="translate(-0.5 -0.5)"><switch><foreignObject pointer-events="none" width="100%" height="100%" requiredFeatures="http://www.w3.org/TR/SVG11/feature#Extensibility" style="overflow: visible; text-align: left;"><div xmlns="http://www.w3.org/1999/xhtml" style="display: flex; align-items: unsafe center; justify-content: unsafe center; width: 1px; height: 1px; padding-top: 141px; margin-left: 671px;"><div data-drawio-colors="color: rgb(0, 0, 0); " style="box-sizing: border-box; font-size: 0px; text-align: center;"><div style="display: inline-block; font-size: 10px; font-family: &quot;Courier New&quot;; color: rgb(0, 0, 0); line-height: 1.2; pointer-events: all; white-space: nowrap;">1..*</div></div></div></foreignObject><text x="671" y="144" fill="rgb(0, 0, 0)" font-family="Courier New" font-size="10px" text-anchor="middle">1..*</text></switch></g><path d="M 352 160.05 L 302 160.05 Q 292 160.05 292 170.05 L 292 645 Q 292 655 282 655 L 237.24 655" fill="none" stroke="#6c8ebf" stroke-miterlimit="10" pointer-events="stroke"/><path d="M 243.12 651.5 L 236.12 655 L 243.12 658.5" fill="none" stroke="#6c8ebf" stroke-miterlimit="10" pointer-events="all"/><g transform="translate(-0.5 -0.5)"><switch><foreignObject pointer-events="none" width="100%" height="100%" requiredFeatures="http://www.w3.org/TR/SVG11/feature#Extensibility" style="overflow: visible; text-align: left;"><div xmlns="http://www.w3.org/1999/xhtml" style="display: flex; align-items: unsafe center; justify-content: unsafe center; width: 1px; height: 1px; padding-top: 406px; margin-left: 292px;"><div data-drawio-colors="color: rgb(0, 0, 0); " style="box-sizing: border-box; font-size: 0px; text-align: center;"><div style="display: inline-block; font-size: 10px; font-family: &quot;Courier New&quot;; color: rgb(0, 0, 0); line-height: 1.2; pointer-events: all; white-space: nowrap;">1..*</div></div></div></foreignObject><text x="292" y="409" fill="rgb(0, 0, 0)" font-family="Courier New" font-size="10px" text-anchor="middle">1..*</text></switch></g><path d="M 472 210 L 472 367.76" fill="none" stroke="#6c8ebf" stroke-miterlimit="10" pointer-events="stroke"/><path d="M 468.5 361.88 L 472 368.88 L 475.5 361.88" fill="none" stroke="#6c8ebf" stroke-miterlimit="10" pointer-events="all"/><g transform="translate(-0.5 -0.5)"><switch><foreignObject pointer-events="none" width="100%" height="100%" requiredFeatures="http://www.w3.org/TR/SVG11/feature#Extensibility" style="overflow: visible; text-align: left;"><div xmlns="http://www.w3.org/1999/xhtml" style="display: flex; align-items: unsafe center; justify-content: unsafe center; width: 1px; height: 1px; padding-top: 290px; margin-left: 472px;"><div data-drawio-colors="color: rgb(0, 0, 0); " style="box-sizing: border-box; font-size: 0px; text-align: center;"><div style="display: inline-block; font-size: 10px; font-family: &quot;Courier New&quot;; color: rgb(0, 0, 0); line-height: 1.2; pointer-events: all; white-space: nowrap;">1..*</div></div></div></foreignObject><text x="472" y="293" fill="rgb(0, 0, 0)" font-family="Courier New" font-size="10px" text-anchor="middle">1..*</text></switch></g><path d="M 352 190.05 L 332 190.05 Q 322 190.05 322 200.05 L 322 425 Q 322 435 312 435 L 295 435 C 295 431.1 289 431.1 289 435 L 289 435 L 234.24 435" fill="none" stroke="#6c8ebf" stroke-miterlimit="10" pointer-events="stroke"/><path d="M 240.12 431.5 L 233.12 435 L 240.12 438.5" fill="none" stroke="#6c8ebf" stroke-miterlimit="10" pointer-events="all"/><g transform="translate(-0.5 -0.5)"><switch><foreignObject pointer-events="none" width="100%" height="100%" requiredFeatures="http://www.w3.org/TR/SVG11/feature#Extensibility" style="overflow: visible; text-align: left;"><div xmlns="http://www.w3.org/1999/xhtml" style="display: flex; align-items: unsafe center; justify-content: unsafe center; width: 1px; height: 1px; padding-top: 343px; margin-left: 322px;"><div data-drawio-colors="color: rgb(0, 0, 0); " style="box-sizing: border-box; font-size: 0px; text-align: center;"><div style="display: inline-block; font-size: 10px; font-family: &quot;Courier New&quot;; color: rgb(0, 0, 0); line-height: 1.2; pointer-events: all; white-space: nowrap;">1..*</div></div></div></foreignObject><text x="322" y="346" fill="rgb(0, 0, 0)" font-family="Courier New" font-size="10px" text-anchor="middle">1..*</text></switch></g><path d="M 592 164 L 654 164.04 Q 664 164.05 664 174.05 L 664 444.05 Q 664 454.05 674 454.04 L 729.76 454" fill="none" stroke="#6c8ebf" stroke-miterlimit="10" pointer-events="stroke"/><path d="M 723.88 457.51 L 730.88 454 L 723.88 450.51" fill="none" stroke="#6c8ebf" stroke-miterlimit="10" pointer-events="all"/><g transform="translate(-0.5 -0.5)"><switch><foreignObject pointer-events="none" width="100%" height="100%" requiredFeatures="http://www.w3.org/TR/SVG11/feature#Extensibility" style="overflow: visible; text-align: left;"><div xmlns="http://www.w3.org/1999/xhtml" style="display: flex; align-items: unsafe center; justify-content: unsafe center; width: 1px; height: 1px; padding-top: 307px; margin-left: 664px;"><div data-drawio-colors="color: rgb(0, 0, 0); " style="box-sizing: border-box; font-size: 0px; text-align: center;"><div style="display: inline-block; font-size: 10px; font-family: &quot;Courier New&quot;; color: rgb(0, 0, 0); line-height: 1.2; pointer-events: all; white-space: nowrap;">1..*</div></div></div></foreignObject><text x="664" y="310" fill="rgb(0, 0, 0)" font-family="Courier New" font-size="10px" text-anchor="middle">1..*</text></switch></g><path d="M 592 100.05 L 690.67 100.05 Q 700.67 100.05 700.67 110.05 L 700.67 177.05 C 704.57 177.05 704.57 183.05 700.67 183.05 L 700.67 183.05 L 700.67 451.02 C 704.57 451.02 704.57 457.02 700.67 457.02 L 700.67 457.02 L 700.67 595 Q 700.67 605 710.67 605 L 729.76 605" fill="none" stroke="#6c8ebf" stroke-miterlimit="10" pointer-events="stroke"/><path d="M 723.88 608.5 L 730.88 605 L 723.88 601.5" fill="none" stroke="#6c8ebf" stroke-miterlimit="10" pointer-events="all"/><g transform="translate(-0.5 -0.5)"><switch><foreignObject pointer-events="none" width="100%" height="100%" requiredFeatures="http://www.w3.org/TR/SVG11/feature#Extensibility" style="overflow: visible; text-align: left;"><div xmlns="http://www.w3.org/1999/xhtml" style="display: flex; align-items: unsafe center; justify-content: unsafe center; width: 1px; height: 1px; padding-top: 314px; margin-left: 701px;"><div data-drawio-colors="color: rgb(0, 0, 0); " style="box-sizing: border-box; font-size: 0px; text-align: center;"><div style="display: inline-block; font-size: 10px; font-family: &quot;Courier New&quot;; color: rgb(0, 0, 0); line-height: 1.2; pointer-events: all; white-space: nowrap;">1..*</div></div></div></foreignObject><text x="701" y="317" fill="rgb(0, 0, 0)" font-family="Courier New" font-size="10px" text-anchor="middle">1..*</text></switch></g><path d="M 232 678 L 298.19 678.04 Q 308.19 678.05 308.19 668.05 L 308.19 503 Q 308.19 493 318.19 493 L 349.76 493" fill="none" stroke="#6c8ebf" stroke-miterlimit="10" stroke-dasharray="3 3" pointer-events="stroke"/><path d="M 343.88 496.5 L 350.88 493 L 343.88 489.5" fill="none" stroke="#6c8ebf" stroke-miterlimit="10" pointer-events="all"/><g transform="translate(-0.5 -0.5)"><switch><foreignObject pointer-events="none" width="100%" height="100%" requiredFeatures="http://www.w3.org/TR/SVG11/feature#Extensibility" style="overflow: visible; text-align: left;"><div xmlns="http://www.w3.org/1999/xhtml" style="display: flex; align-items: unsafe center; justify-content: unsafe center; width: 1px; height: 1px; padding-top: 602px; margin-left: 308px;"><div data-drawio-colors="color: rgb(0, 0, 0); " style="box-sizing: border-box; font-size: 0px; text-align: center;"><div style="display: inline-block; font-size: 10px; font-family: &quot;Courier New&quot;; color: rgb(0, 0, 0); line-height: 1.2; pointer-events: all; white-space: nowrap;">0..*</div></div></div></foreignObject><text x="308" y="605" fill="rgb(0, 0, 0)" font-family="Courier New" font-size="10px" text-anchor="middle">0..*</text></switch></g><path d="M 472 570 L 472 644" fill="none" stroke="#6c8ebf" stroke-miterlimit="10" pointer-events="stroke"/><path d="M 476 574 L 468 574 M 476 578 L 468 578" fill="none" stroke="#6c8ebf" stroke-miterlimit="10" pointer-events="all"/><path d="M 476 644 L 472 636 L 468 644" fill="none" stroke="#6c8ebf" stroke-miterlimit="10" pointer-events="all"/><g transform="translate(-0.5 -0.5)"><switch><foreignObject pointer-events="none" width="100%" height="100%" requiredFeatures="http://www.w3.org/TR/SVG11/feature#Extensibility" style="overflow: visible; text-align: left;"><div xmlns="http://www.w3.org/1999/xhtml" style="display: flex; align-items: unsafe center; justify-content: unsafe center; width: 1px; height: 1px; padding-top: 607px; margin-left: 472px;"><div data-drawio-colors="color: rgb(0, 0, 0); " style="box-sizing: border-box; font-size: 0px; text-align: center;"><div style="display: inline-block; font-size: 10px; font-family: &quot;Courier New&quot;; color: rgb(0, 0, 0); line-height: 1.2; pointer-events: all; white-space: nowrap;">1..*</div></div></div></foreignObject><text x="472" y="610" fill="rgb(0, 0, 0)" font-family="Courier New" font-size="10px" text-anchor="middle">1..*</text></switch></g><path d="M 732 260.05 L 703.67 260.05 C 703.67 256.15 697.67 256.15 697.67 260.05 L 697.67 260.05 L 667 260.05 C 667 256.15 661 256.15 661 260.05 L 661 260.05 L 639.81 260.05 Q 629.81 260.05 629.81 270.05 L 629.81 697.67 Q 629.81 707.67 619.81 707.67 L 594.24 707.67" fill="none" stroke="#6c8ebf" stroke-miterlimit="10" stroke-dasharray="3 3" pointer-events="stroke"/><path d="M 600.12 704.17 L 593.12 707.67 L 600.12 711.17" fill="none" stroke="#6c8ebf" stroke-miterlimit="10" pointer-events="all"/><g transform="translate(-0.5 -0.5)"><switch><foreignObject pointer-events="none" width="100%" height="100%" requiredFeatures="http://www.w3.org/TR/SVG11/feature#Extensibility" style="overflow: visible; text-align: left;"><div xmlns="http://www.w3.org/1999/xhtml" style="display: flex; align-items: unsafe center; justify-content: unsafe center; width: 1px; height: 1px; padding-top: 452px; margin-left: 630px;"><div data-drawio-colors="color: rgb(0, 0, 0); " style="box-sizing: border-box; font-size: 0px; text-align: center;"><div style="display: inline-block; font-size: 10px; font-family: &quot;Courier New&quot;; color: rgb(0, 0, 0); line-height: 1.2; pointer-events: all; white-space: nowrap;">0..*</div></div></div></foreignObject><text x="630" y="455" fill="rgb(0, 0, 0)" font-family="Courier New" font-size="10px" text-anchor="middle">0..*</text></switch></g><path d="M 852 280 L 852 327.76" fill="none" stroke="#6c8ebf" stroke-miterlimit="10" pointer-events="stroke"/><path d="M 848.5 321.88 L 852 328.88 L 855.5 321.88" fill="none" stroke="#6c8ebf" stroke-miterlimit="10" pointer-events="all"/><g transform="translate(-0.5 -0.5)"><switch><foreignObject pointer-events="none" width="100%" height="100%" requiredFeatures="http://www.w3.org/TR/SVG11/feature#Extensibility" style="overflow: visible; text-align: left;"><div xmlns="http://www.w3.org/1999/xhtml" style="display: flex; align-items: unsafe center; justify-content: unsafe center; width: 1px; height: 1px; padding-top: 305px; margin-left: 852px;"><div data-drawio-colors="color: rgb(0, 0, 0); " style="box-sizing: border-box; font-size: 0px; text-align: center;"><div style="display: inline-block; font-size: 10px; font-family: &quot;Courier New&quot;; color: rgb(0, 0, 0); line-height: 1.2; pointer-events: all; white-space: nowrap;">1..*</div></div></div></foreignObject><text x="852" y="308" fill="rgb(0, 0, 0)" font-family="Courier New" font-size="10px" text-anchor="middle">1..*</text></switch></g><path d="M 972 180.05 L 992 180.05 Q 1002 180.05 1002 190.05 L 1002 595 Q 1002 605 992 605 L 974.24 605" fill="none" stroke="#6c8ebf" stroke-miterlimit="10" pointer-events="stroke"/><path d="M 980.12 601.5 L 973.12 605 L 980.12 608.5" fill="none" stroke="#6c8ebf" stroke-miterlimit="10" pointer-events="all"/><g transform="translate(-0.5 -0.5)"><switch><foreignObject pointer-events="none" width="100%" height="100%" requiredFeatures="http://www.w3.org/TR/SVG11/feature#Extensibility" style="overflow: visible; text-align: left;"><div xmlns="http://www.w3.org/1999/xhtml" style="display: flex; align-items: unsafe center; justify-content: unsafe center; width: 1px; height: 1px; padding-top: 393px; margin-left: 1002px;"><div data-drawio-colors="color: rgb(0, 0, 0); " style="box-sizing: border-box; font-size: 0px; text-align: center;"><div style="display: inline-block; font-size: 10px; font-family: &quot;Courier New&quot;; color: rgb(0, 0, 0); line-height: 1.2; pointer-events: all; white-space: nowrap;">1..*</div></div></div></foreignObject><text x="1002" y="396" fill="rgb(0, 0, 0)" font-family="Courier New" font-size="10px" text-anchor="middle">1..*</text></switch></g></g><switch><g requiredFeatures="http://www.w3.org/TR/SVG11/feature#Extensibility"/><a transform="translate(0,-5)" xlink:href="https://www.drawio.com/doc/faq/svg-export-text-problems" target="_blank"><text text-anchor="middle" font-size="10px" x="50%" y="100%">Text is not SVG - cannot display</text></a></switch></svg>